<mxfile host="app.diagrams.net">
  <diagram name="Page-1" id="q3vnj-_2hRb2FnUek5eL">
    <mxGraphModel dx="606" dy="290" grid="1" gridSize="10" guides="1" tooltips="1" connect="1" arrows="1" fold="1" page="1" pageScale="1" pageFormat="1" pageScaleActual="1" math="0" shadow="0">
      <root>
        <mxCell id="0" />
        <mxCell id="1" parent="0" />
        <mxCell id="q3vnj-_2hRb2FnUek5eL-3" style="group" vertex="1" connectable="0" connectPreview="1">
          <mxGeometry x="30" y="40" width="550" height="190" as="geometry" />
        </mxCell>
        <mxCell id="q3vnj-_2hRb2FnUek5eL-4" style="rounded=0;whiteSpace=wrap;html=1;" vertex="1" connectable="0">
          <mxGeometry x="70" y="90" width="110" height="40" as="geometry" />
          <mxValue>
            <div style="text-align:center;">RestController<br/>(signUp)</div>
          </mxValue>
        </mxCell>
        <mxCell id="q3vnj-_2hRb2FnUek5eL-5" style="rounded=0;whiteSpace=wrap;html=1;" vertex="1" connectable="0">
          <mxGeometry x="250" y="90" width="110" height="40" as="geometry" />
          <mxValue>
            <div style="text-align:center;">Service<br/>(createUser)</div>
          </mxValue>
        </mxCell>
        <mxCell id="q3vnj-_2hRb2FnUek5eL-6" style="rounded=0;whiteSpace=wrap;html=1;" vertex="1" connectable="0">
          <mxGeometry x="430" y="90" width="110" height="40" as="geometry" />
          <mxValue>
            <div style="text-align:center;">Repository<br/>(save)</div>
          </mxValue>
        </mxCell>
        <mxCell id="q3vnj-_2hRb2FnUek5eL-7" style="edgeStyle=orthogonalEdgeStyle;rounded=0;orthogonalLoop=1;jettySize=auto;html=1;exitX=0.5;exitY=1;exitDx=0;exitDy=0;" edge="1" parent="q3vnj-_2hRb2FnUek5eL-3" source="q3vnj-_2hRb2FnUek5eL-4" target="q3vnj-_2hRb2FnUek5eL-5">
          <mxGeometry relative="1" as="geometry" />
        </mxCell>
        <mxCell id="q3vnj-_2hRb2FnUek5eL-8" style="edgeStyle=orthogonalEdgeStyle;rounded=0;orthogonalLoop=1;jettySize=auto;html=1;exitX=0.5;exitY=1;exitDx=0;exitDy=0;" edge="1" parent="q3vnj-_2hRb2FnUek5eL-3" source="q3vnj-_2hRb2FnUek5eL-5" target="q3vnj-_2hRb2FnUek5eL-6">
          <mxGeometry relative="1" as="geometry" />
        </mxCell>
      </root>
    </mxGraphModel>
  </diagram>
</mxfile>
